<svg xmlns="http://www.w3.org/2000/svg" viewBox="0 0 512 512">
  <defs>
    <linearGradient id="bg" x1="0" y1="0" x2="1" y2="1">
      <stop offset="0%" stop-color="#ff7a00" />
      <stop offset="100%" stop-color="#007bff" />
    </linearGradient>
  </defs>
  <rect x="20" y="20" width="472" height="472" rx="110" fill="url(#bg)" />
  <rect x="116" y="156" width="280" height="200" rx="24" fill="#f8fcff" opacity="0.92" />
  <rect x="256" y="158" width="10" height="194" rx="5" fill="#c5d7ee" />
  <rect x="124" y="162" width="126" height="186" rx="16" fill="#ffffff" />
  <rect x="266" y="162" width="122" height="186" rx="16" fill="#ffffff" />
  <g stroke="#9fb2cc" stroke-width="4" stroke-linecap="round">
    <line x1="142" y1="198" x2="234" y2="198" />
    <line x1="142" y1="224" x2="234" y2="224" />
    <line x1="142" y1="250" x2="234" y2="250" />
    <line x1="142" y1="276" x2="234" y2="276" />
    <line x1="142" y1="302" x2="234" y2="302" />
    <line x1="278" y1="198" x2="370" y2="198" />
    <line x1="278" y1="224" x2="370" y2="224" />
    <line x1="278" y1="250" x2="370" y2="250" />
    <line x1="278" y1="276" x2="370" y2="276" />
    <line x1="278" y1="302" x2="370" y2="302" />
  </g>
</svg>
