<svg xmlns="http://www.w3.org/2000/svg" viewBox="0 0 100 100" width="100%" height="100%">
  <defs>
    <linearGradient id="bgGrad" x1="0%" y1="0%" x2="100%" y2="100%">
      <stop offset="0%" stop-color="#4776E6" />
      <stop offset="100%" stop-color="#8E54E9" />
    </linearGradient>
  </defs>
  <rect x="0" y="0" width="100" height="100" rx="24" fill="url(#bgGrad)" />
  <circle cx="50" cy="20" r="3" fill="#FFFFFF" opacity="0.9" />
  <circle cx="31" cy="27" r="1.5" fill="#FFFFFF" opacity="0.6" />
  <circle cx="69" cy="24" r="2" fill="#FFFFFF" opacity="0.8" />
  <circle cx="23" cy="40" r="1" fill="#FFFFFF" opacity="0.4" />
  <circle cx="77" cy="38" r="1" fill="#FFFFFF" opacity="0.4" />
  <path d="M 46 38 L 54 38 L 54 60 L 50 56 L 46 60 Z" fill="#FFC371" />
  <path d="M 50 62 Q 35 67 20 52 L 20 35 Q 35 50 50 45 Z" fill="#FFFFFF" opacity="0.4" />
  <path d="M 50 62 Q 65 67 80 52 L 80 35 Q 65 50 50 45 Z" fill="#FFFFFF" opacity="0.4" />
  <path d="M 50 69 Q 35 74 20 59 L 20 34 Q 35 49 50 44 Z" fill="#FFFFFF" opacity="0.95" />
  <path d="M 50 69 Q 65 74 80 59 L 80 34 Q 65 49 50 44 Z" fill="#FFFFFF" opacity="0.95" />
  <line x1="50" y1="44" x2="50" y2="69" stroke="#E0E5EC" stroke-width="1.5" stroke-linecap="round" />
</svg>
